<svg width="48.015961" height="48.016113" viewBox="0 0 48.016 48.0161" fill="none" xmlns="http://www.w3.org/2000/svg" xmlns:xlink="http://www.w3.org/1999/xlink">
	<desc>
			Created with Pixso.
	</desc>
	<defs/>
	<rect id="Frame 3" rx="23.500000" width="47.000000" height="47.000000" transform="translate(0.515961 0.500000) rotate(0.019056)" fill="#FFFFFF" fill-opacity="1.000000"/>
	<path id="Vector" d="M20 28L27.26 28C31.75 28.01 32.44 25.19 33.26 21.08C33.5 19.89 33.62 19.3 33.34 18.9C33.05 18.51 32.5 18.51 31.4 18.51L18 18.5" stroke="#737373" stroke-opacity="1.000000" stroke-width="1.500000" stroke-linecap="round"/>
	<path id="Vector" d="M20 28L17.38 15.52C17.16 14.63 16.36 14 15.44 14L14.51 14" stroke="#737373" stroke-opacity="1.000000" stroke-width="1.500000" stroke-linecap="round"/>
	<path id="Vector" d="M20.88 28L20.47 28C19.11 28 18 29.15 18 30.57C18 30.81 18.18 31 18.41 31L29.5 31" stroke="#737373" stroke-opacity="1.000000" stroke-width="1.500000" stroke-linejoin="round" stroke-linecap="round"/>
	<path id="Vector" d="M22.5 34C21.67 34 21 33.33 21 32.5C21 31.67 21.67 31 22.5 31C23.33 31 24 31.67 24 32.5C24 33.33 23.33 34 22.5 34Z" stroke="#737373" stroke-opacity="1.000000" stroke-width="1.500000"/>
	<path id="Vector" d="M29.5 34C28.67 34 28 33.33 28 32.5C28 31.68 28.67 31 29.5 31C30.33 31.01 31 31.68 31 32.51C31 33.33 30.33 34.01 29.5 34Z" stroke="#737373" stroke-opacity="1.000000" stroke-width="1.500000"/>
	<rect id="Frame 3" rx="23.500000" width="47.000000" height="47.000000" transform="translate(0.515961 0.500000) rotate(0.019056)" stroke="#E9E9E9" stroke-opacity="1.000000" stroke-width="1.000000"/>
</svg>
