<svg width="35.833374" height="34.031250" viewBox="0 0 35.8334 34.0312" fill="none" xmlns="http://www.w3.org/2000/svg" xmlns:xlink="http://www.w3.org/1999/xlink">
	<desc>
			Created with Pixso.
	</desc>
	<defs/>
	<path id="Vector" d="M8.08 28.75C5.91 28.53 4.29 27.88 3.2 26.79C1.25 24.84 1.25 21.7 1.25 15.41L1.25 14.58C1.25 8.29 1.25 5.15 3.2 3.2C5.15 1.25 8.29 1.25 14.58 1.25L21.25 1.25C27.53 1.25 30.67 1.25 32.63 3.2C34.58 5.15 34.58 8.29 34.58 14.58L34.58 15.41C34.58 21.7 34.58 24.84 32.63 26.79C30.67 28.75 27.53 28.75 21.25 28.75C20.31 28.77 19.57 28.84 18.84 29C16.84 29.46 14.99 30.49 13.16 31.38C10.56 32.65 9.26 33.28 8.44 32.69C6.87 31.52 8.4 27.91 8.75 26.25" stroke="#737373" stroke-opacity="1.000000" stroke-width="2.500000" stroke-linecap="round"/>
</svg>
